<svg width="76" height="75" viewBox="0 0 76 75" fill="none" xmlns="http://www.w3.org/2000/svg">
<g filter="url(#filter0_d)">
<path d="M13.9828 34.6316L12.9828 34.6316C12.9828 34.8968 13.0881 35.1512 13.2757 35.3387C13.4632 35.5262 13.7176 35.6316 13.9828 35.6316L13.9828 34.6316ZM34.1552 38.6316L35.1552 38.6316L34.1552 38.6316ZM34.1552 48.8947L33.1552 48.8947L34.1552 48.8947ZM34.1552 61.4386L35.1552 61.4386L34.1552 61.4386ZM26.1552 52.8947L27.1552 52.8947C27.1552 52.6295 27.0498 52.3752 26.8623 52.1876C26.6748 52.0001 26.4204 51.8947 26.1552 51.8947L26.1552 52.8947ZM23.6901 52.8947L23.6901 51.8947C23.3479 51.8947 23.0294 52.0698 22.846 52.3587C22.6625 52.6476 22.6395 53.0103 22.7851 53.3201L23.6901 52.8947ZM22.8727 57.4494L22.1718 56.7362L22.1718 56.7362L22.8727 57.4494ZM17.2161 57.4002L16.5029 58.1012L16.5029 58.1012L17.2161 57.4002ZM16.9557 57.1353L17.6689 56.4343L17.6689 56.4343L16.9557 57.1353ZM14.9483 52.2288L15.9483 52.2288L14.9483 52.2288ZM14.9483 51.8947L13.9483 51.8947L14.9483 51.8947ZM21.9483 44.8947L21.9483 45.8947L21.9483 44.8947ZM26.1552 44.8947L26.1552 45.8947C26.4204 45.8947 26.6748 45.7894 26.8623 45.6018C27.0498 45.4143 27.1552 45.16 27.1552 44.8947L26.1552 44.8947ZM26.1552 42.6316L27.1552 42.6316C27.1552 42.0793 26.7075 41.6316 26.1552 41.6316L26.1552 42.6316ZM12.9828 24.3684L12.9828 25.3684L12.9828 24.3684ZM26.1552 24.3684L26.1552 25.3684C26.4204 25.3684 26.6748 25.2631 26.8623 25.0755C27.0498 24.888 27.1552 24.6336 27.1552 24.3684L26.1552 24.3684ZM26.1552 22.1053L27.1552 22.1053C27.1552 21.553 26.7075 21.1053 26.1552 21.1053L26.1552 22.1053ZM21.9483 22.1053L21.9483 23.1053L21.9483 22.1053ZM16.9557 9.86473L16.2425 9.1638L16.2425 9.1638L16.9557 9.86473ZM17.2161 9.59979L17.9293 10.3007L17.9293 10.3007L17.2161 9.59979ZM22.8727 9.5506L23.5737 8.83737L23.5736 8.83737L22.8727 9.5506ZM23.6901 14.1053L22.7851 13.6799C22.6395 13.9897 22.6625 14.3524 22.846 14.6413C23.0294 14.9302 23.3479 15.1053 23.6901 15.1053L23.6901 14.1053ZM26.1552 14.1053L26.1552 15.1053C26.7075 15.1053 27.1552 14.6576 27.1552 14.1053L26.1552 14.1053ZM26.1552 5.56141L27.1552 5.56141L26.1552 5.56141ZM34.1552 18.1053L35.1552 18.1053L34.1552 18.1053ZM34.1552 28.3684L33.1552 28.3684L34.1552 28.3684ZM13.9828 32.3684L13.9828 31.3684C13.4305 31.3684 12.9828 31.8161 12.9828 32.3684L13.9828 32.3684ZM13.9828 33.5L14.9828 33.5L13.9828 33.5ZM30.1552 33.6316L13.9828 33.6316L13.9828 35.6316L30.1552 35.6316L30.1552 33.6316ZM35.1552 38.6316C35.1552 35.8702 32.9166 33.6316 30.1552 33.6316L30.1552 35.6316C31.8121 35.6316 33.1552 36.9747 33.1552 38.6316L35.1552 38.6316ZM35.1552 48.8947L35.1552 38.6316L33.1552 38.6316L33.1552 48.8947L35.1552 48.8947ZM35.1552 61.4386L35.1552 48.8947L33.1552 48.8947L33.1552 61.4386L35.1552 61.4386ZM30.1552 66.4386C32.9166 66.4386 35.1552 64.2 35.1552 61.4386L33.1552 61.4386C33.1552 63.0955 31.8121 64.4386 30.1552 64.4386L30.1552 66.4386ZM25.1552 61.4386C25.1552 64.2 27.3938 66.4386 30.1552 66.4386L30.1552 64.4386C28.4983 64.4386 27.1552 63.0955 27.1552 61.4386L25.1552 61.4386ZM25.1552 52.8947L25.1552 61.4386L27.1552 61.4386L27.1552 52.8947L25.1552 52.8947ZM23.6901 53.8947L26.1552 53.8947L26.1552 51.8947L23.6901 51.8947L23.6901 53.8947ZM23.5737 58.1626C25.1304 56.6327 25.4725 54.3363 24.5952 52.4694L22.7851 53.3201C23.3125 54.4422 23.1041 55.82 22.1718 56.7362L23.5737 58.1626ZM16.5029 58.1012C18.4384 60.0707 21.6041 60.0982 23.5737 58.1626L22.1718 56.7362C20.9901 57.8975 19.0907 57.881 17.9293 56.6993L16.5029 58.1012ZM16.2425 57.8362L16.5029 58.1012L17.9293 56.6993L17.6689 56.4343L16.2425 57.8362ZM13.9483 52.2288C13.9483 54.3264 14.7722 56.3401 16.2425 57.8362L17.6689 56.4343C16.5662 55.3123 15.9483 53.802 15.9483 52.2288L13.9483 52.2288ZM13.9483 51.8947L13.9483 52.2288L15.9483 52.2288L15.9483 51.8947L13.9483 51.8947ZM21.9483 43.8947C17.53 43.8947 13.9483 47.4765 13.9483 51.8947L15.9483 51.8947C15.9483 48.581 18.6346 45.8947 21.9483 45.8947L21.9483 43.8947ZM26.1552 43.8947L21.9483 43.8947L21.9483 45.8947L26.1552 45.8947L26.1552 43.8947ZM25.1552 42.6316L25.1552 44.8947L27.1552 44.8947L27.1552 42.6316L25.1552 42.6316ZM12.9828 43.6316L26.1552 43.6316L26.1552 41.6316L12.9828 41.6316L12.9828 43.6316ZM4.98279 35.6316C4.98279 40.0499 8.5645 43.6316 12.9828 43.6316L12.9828 41.6316C9.66908 41.6316 6.98279 38.9453 6.98279 35.6316L4.98279 35.6316ZM4.98279 33.5L4.98279 35.6316L6.98279 35.6316L6.98279 33.5L4.98279 33.5ZM4.98279 31.3684L4.98279 33.5L6.98279 33.5L6.98279 31.3684L4.98279 31.3684ZM12.9828 23.3684C8.56451 23.3684 4.98279 26.9501 4.98279 31.3684L6.98279 31.3684C6.98279 28.0547 9.66908 25.3684 12.9828 25.3684L12.9828 23.3684ZM26.1552 23.3684L12.9828 23.3684L12.9828 25.3684L26.1552 25.3684L26.1552 23.3684ZM25.1552 22.1053L25.1552 24.3684L27.1552 24.3684L27.1552 22.1053L25.1552 22.1053ZM21.9483 23.1053L26.1552 23.1053L26.1552 21.1053L21.9483 21.1053L21.9483 23.1053ZM13.9483 15.1053C13.9483 19.5235 17.53 23.1053 21.9483 23.1053L21.9483 21.1053C18.6346 21.1053 15.9483 18.419 15.9483 15.1053L13.9483 15.1053ZM13.9483 14.7713L13.9483 15.1053L15.9483 15.1053L15.9483 14.7713L13.9483 14.7713ZM16.2425 9.1638C14.7722 10.6599 13.9483 12.6736 13.9483 14.7713L15.9483 14.7713C15.9483 13.198 16.5662 11.6877 17.6689 10.5657L16.2425 9.1638ZM16.5029 8.89885L16.2425 9.1638L17.6689 10.5657L17.9293 10.3007L16.5029 8.89885ZM23.5736 8.83737C21.6041 6.9018 18.4384 6.92933 16.5028 8.89886L17.9293 10.3007C19.0906 9.119 20.9901 9.10249 22.1718 10.2638L23.5736 8.83737ZM24.5952 14.5306C25.4725 12.6637 25.1304 10.3673 23.5737 8.83737L22.1718 10.2638C23.1041 11.1801 23.3125 12.5578 22.7851 13.6799L24.5952 14.5306ZM26.1552 13.1053L23.6901 13.1053L23.6901 15.1053L26.1552 15.1053L26.1552 13.1053ZM25.1552 5.56141L25.1552 14.1053L27.1552 14.1053L27.1552 5.56141L25.1552 5.56141ZM30.1552 0.561408C27.3938 0.561408 25.1552 2.79998 25.1552 5.56141L27.1552 5.56141C27.1552 3.90455 28.4983 2.56141 30.1552 2.56141L30.1552 0.561408ZM35.1552 5.56141C35.1552 2.79998 32.9166 0.561408 30.1552 0.561408L30.1552 2.56141C31.8121 2.56141 33.1552 3.90455 33.1552 5.56141L35.1552 5.56141ZM35.1552 18.1053L35.1552 5.56141L33.1552 5.56141L33.1552 18.1053L35.1552 18.1053ZM35.1552 28.3684L35.1552 18.1053L33.1552 18.1053L33.1552 28.3684L35.1552 28.3684ZM30.1552 33.3684C32.9166 33.3684 35.1552 31.1298 35.1552 28.3684L33.1552 28.3684C33.1552 30.0253 31.8121 31.3684 30.1552 31.3684L30.1552 33.3684ZM13.9828 33.3684L30.1552 33.3684L30.1552 31.3684L13.9828 31.3684L13.9828 33.3684ZM14.9828 33.5L14.9828 32.3684L12.9828 32.3684L12.9828 33.5L14.9828 33.5ZM14.9828 34.6316L14.9828 33.5L12.9828 33.5L12.9828 34.6316L14.9828 34.6316Z" fill="#3C64B1"/>
<path d="M62.0172 34.6316L63.0172 34.6316C63.0172 35.1839 62.5695 35.6316 62.0172 35.6316L62.0172 34.6316ZM41.8448 38.6316L42.8448 38.6316L41.8448 38.6316ZM41.8448 48.8947L40.8448 48.8947L41.8448 48.8947ZM49.8448 61.4386L48.8448 61.4386L49.8448 61.4386ZM49.8448 52.8947L48.8448 52.8947C48.8448 52.3425 49.2925 51.8947 49.8448 51.8947L49.8448 52.8947ZM52.3099 52.8947L52.3099 51.8947C52.6521 51.8947 52.9706 52.0698 53.154 52.3587C53.3375 52.6476 53.3605 53.0103 53.2149 53.3201L52.3099 52.8947ZM53.1273 57.4494L52.4263 58.1626L52.4263 58.1626L53.1273 57.4494ZM58.7839 57.4002L59.4971 58.1012L59.4971 58.1012L58.7839 57.4002ZM59.0443 57.1353L58.3311 56.4343L58.3311 56.4343L59.0443 57.1353ZM61.0517 52.2288L62.0517 52.2288L61.0517 52.2288ZM61.0517 51.8947L60.0517 51.8947L61.0517 51.8947ZM54.0517 44.8947L54.0517 45.8947L54.0517 44.8947ZM49.8448 44.8947L49.8448 45.8947C49.2925 45.8947 48.8448 45.447 48.8448 44.8947L49.8448 44.8947ZM49.8448 42.6316L48.8448 42.6316C48.8448 42.0793 49.2925 41.6316 49.8448 41.6316L49.8448 42.6316ZM70.0172 35.6316L69.0172 35.6316L70.0172 35.6316ZM70.0172 33.5L71.0172 33.5L70.0172 33.5ZM63.0172 24.3684L63.0172 23.3684L63.0172 24.3684ZM49.8448 24.3684L49.8448 25.3684C49.2925 25.3684 48.8448 24.9207 48.8448 24.3684L49.8448 24.3684ZM49.8448 22.1053L48.8448 22.1053C48.8448 21.84 48.9502 21.5857 49.1377 21.3982C49.3252 21.2106 49.5796 21.1053 49.8448 21.1053L49.8448 22.1053ZM59.0443 9.86473L59.7575 9.1638L59.7575 9.1638L59.0443 9.86473ZM58.7839 9.59979L58.0707 10.3007L58.0707 10.3007L58.7839 9.59979ZM53.1273 9.5506L52.4264 8.83737L52.4264 8.83737L53.1273 9.5506ZM52.3099 14.1053L53.2149 13.6799C53.3605 13.9897 53.3375 14.3524 53.1541 14.6413C52.9706 14.9302 52.6521 15.1053 52.3099 15.1053L52.3099 14.1053ZM49.8448 14.1053L49.8448 15.1053C49.2925 15.1053 48.8448 14.6576 48.8448 14.1053L49.8448 14.1053ZM41.8448 5.56141L40.8448 5.56141L41.8448 5.56141ZM41.8448 18.1053L42.8448 18.1053L41.8448 18.1053ZM62.0172 32.3684L62.0172 31.3684C62.5695 31.3684 63.0172 31.8161 63.0172 32.3684L62.0172 32.3684ZM62.0172 33.5L63.0172 33.5L62.0172 33.5ZM45.8448 33.6316L62.0172 33.6316L62.0172 35.6316L45.8448 35.6316L45.8448 33.6316ZM40.8448 38.6316C40.8448 35.8702 43.0834 33.6316 45.8448 33.6316L45.8448 35.6316C44.1879 35.6316 42.8448 36.9747 42.8448 38.6316L40.8448 38.6316ZM40.8448 48.8947L40.8448 38.6316L42.8448 38.6316L42.8448 48.8947L40.8448 48.8947ZM40.8448 61.4386L40.8448 48.8947L42.8448 48.8947L42.8448 61.4386L40.8448 61.4386ZM45.8448 66.4386C43.0834 66.4386 40.8448 64.2 40.8448 61.4386L42.8448 61.4386C42.8448 63.0955 44.1879 64.4386 45.8448 64.4386L45.8448 66.4386ZM50.8448 61.4386C50.8448 64.2 48.6062 66.4386 45.8448 66.4386L45.8448 64.4386C47.5017 64.4386 48.8448 63.0955 48.8448 61.4386L50.8448 61.4386ZM50.8448 52.8947L50.8448 61.4386L48.8448 61.4386L48.8448 52.8947L50.8448 52.8947ZM52.3099 53.8947L49.8448 53.8947L49.8448 51.8947L52.3099 51.8947L52.3099 53.8947ZM52.4263 58.1626C50.8696 56.6327 50.5275 54.3363 51.4048 52.4694L53.2149 53.3201C52.6875 54.4422 52.8959 55.82 53.8282 56.7362L52.4263 58.1626ZM59.4971 58.1012C57.5616 60.0707 54.3959 60.0982 52.4263 58.1626L53.8282 56.7362C55.0099 57.8975 56.9094 57.881 58.0707 56.6993L59.4971 58.1012ZM59.7575 57.8362L59.4971 58.1012L58.0707 56.6993L58.3311 56.4343L59.7575 57.8362ZM62.0517 52.2288C62.0517 54.3264 61.2278 56.3401 59.7575 57.8362L58.3311 56.4343C59.4338 55.3123 60.0517 53.802 60.0517 52.2288L62.0517 52.2288ZM62.0517 51.8947L62.0517 52.2288L60.0517 52.2288L60.0517 51.8947L62.0517 51.8947ZM54.0517 43.8947C58.47 43.8947 62.0517 47.4765 62.0517 51.8947L60.0517 51.8947C60.0517 48.581 57.3654 45.8947 54.0517 45.8947L54.0517 43.8947ZM49.8448 43.8947L54.0517 43.8947L54.0517 45.8947L49.8448 45.8947L49.8448 43.8947ZM50.8448 42.6316L50.8448 44.8947L48.8448 44.8947L48.8448 42.6316L50.8448 42.6316ZM63.0172 43.6316L49.8448 43.6316L49.8448 41.6316L63.0172 41.6316L63.0172 43.6316ZM71.0172 35.6316C71.0172 40.0499 67.4355 43.6316 63.0172 43.6316L63.0172 41.6316C66.3309 41.6316 69.0172 38.9453 69.0172 35.6316L71.0172 35.6316ZM71.0172 33.5L71.0172 35.6316L69.0172 35.6316L69.0172 33.5L71.0172 33.5ZM71.0172 31.3684L71.0172 33.5L69.0172 33.5L69.0172 31.3684L71.0172 31.3684ZM63.0172 23.3684C67.4355 23.3684 71.0172 26.9501 71.0172 31.3684L69.0172 31.3684C69.0172 28.0547 66.3309 25.3684 63.0172 25.3684L63.0172 23.3684ZM49.8448 23.3684L63.0172 23.3684L63.0172 25.3684L49.8448 25.3684L49.8448 23.3684ZM50.8448 22.1053L50.8448 24.3684L48.8448 24.3684L48.8448 22.1053L50.8448 22.1053ZM54.0517 23.1053L49.8448 23.1053L49.8448 21.1053L54.0517 21.1053L54.0517 23.1053ZM62.0517 15.1053C62.0517 19.5235 58.47 23.1053 54.0517 23.1053L54.0517 21.1053C57.3654 21.1053 60.0517 18.419 60.0517 15.1053L62.0517 15.1053ZM62.0517 14.7713L62.0517 15.1053L60.0517 15.1053L60.0517 14.7713L62.0517 14.7713ZM59.7575 9.1638C61.2278 10.6599 62.0517 12.6736 62.0517 14.7713L60.0517 14.7713C60.0517 13.198 59.4338 11.6877 58.3311 10.5657L59.7575 9.1638ZM59.4971 8.89885L59.7575 9.1638L58.3311 10.5657L58.0707 10.3007L59.4971 8.89885ZM52.4264 8.83737C54.3959 6.9018 57.5616 6.92933 59.4972 8.89886L58.0707 10.3007C56.9094 9.119 55.0099 9.10249 53.8282 10.2638L52.4264 8.83737ZM51.4048 14.5306C50.5275 12.6637 50.8696 10.3673 52.4264 8.83737L53.8282 10.2638C52.8959 11.18 52.6875 12.5578 53.2149 13.6799L51.4048 14.5306ZM49.8448 13.1053L52.3099 13.1053L52.3099 15.1053L49.8448 15.1053L49.8448 13.1053ZM50.8448 5.56141L50.8448 14.1053L48.8448 14.1053L48.8448 5.56141L50.8448 5.56141ZM45.8448 0.561408C48.6062 0.561408 50.8448 2.79998 50.8448 5.56141L48.8448 5.56141C48.8448 3.90455 47.5017 2.56141 45.8448 2.56141L45.8448 0.561408ZM40.8448 5.56141C40.8448 2.79998 43.0834 0.561408 45.8448 0.561408L45.8448 2.56141C44.1879 2.56141 42.8448 3.90455 42.8448 5.56141L40.8448 5.56141ZM40.8448 18.1053L40.8448 5.56141L42.8448 5.56141L42.8448 18.1053L40.8448 18.1053ZM40.8448 28.3684L40.8448 18.1053L42.8448 18.1053L42.8448 28.3684L40.8448 28.3684ZM45.8448 33.3684C43.0834 33.3684 40.8448 31.1298 40.8448 28.3684L42.8448 28.3684C42.8448 30.0253 44.1879 31.3684 45.8448 31.3684L45.8448 33.3684ZM62.0172 33.3684L45.8448 33.3684L45.8448 31.3684L62.0172 31.3684L62.0172 33.3684ZM61.0172 33.5L61.0172 32.3684L63.0172 32.3684L63.0172 33.5L61.0172 33.5ZM61.0172 34.6316L61.0172 33.5L63.0172 33.5L63.0172 34.6316L61.0172 34.6316Z" fill="#3C64B1"/>
</g>
<defs>
<filter id="filter0_d" x="0.982788" y="0.561401" width="74.0344" height="73.8772" filterUnits="userSpaceOnUse" color-interpolation-filters="sRGB">
<feFlood flood-opacity="0" result="BackgroundImageFix"/>
<feColorMatrix in="SourceAlpha" type="matrix" values="0 0 0 0 0 0 0 0 0 0 0 0 0 0 0 0 0 0 127 0"/>
<feOffset dy="4"/>
<feGaussianBlur stdDeviation="2"/>
<feColorMatrix type="matrix" values="0 0 0 0 0 0 0 0 0 0 0 0 0 0 0 0 0 0 0.25 0"/>
<feBlend mode="normal" in2="BackgroundImageFix" result="effect1_dropShadow"/>
<feBlend mode="normal" in="SourceGraphic" in2="effect1_dropShadow" result="shape"/>
</filter>
</defs>
</svg>
