<svg width="141" height="103" viewBox="0 0 141 103" fill="none" xmlns="http://www.w3.org/2000/svg">
<line x1="112" y1="85" x2="100" y2="85" stroke="#252525" stroke-width="2"/>
<line x1="121" y1="65" x2="92" y2="65" stroke="#252525" stroke-width="2"/>
<line x1="116" y1="75" x2="96" y2="75" stroke="#252525" stroke-width="2"/>
<mask id="path-4-outside-1" maskUnits="userSpaceOnUse" x="86" y="47" width="55" height="55" fill="black">
<rect fill="white" x="86" y="47" width="55" height="55"/>
<path fill-rule="evenodd" clip-rule="evenodd" d="M104.862 99.375L87 59.8234V54.0805L105.762 95.625C106.262 96.625 106.762 96.625 107.262 95.625L128.262 49.125C128.612 48.375 129.237 48 130.137 48H138.387C139.137 48 139.512 48.375 139.512 49.125C139.512 49.875 139.137 50.25 138.387 50.25H133.137C132.387 50.25 132.012 50.625 132.012 51.375V97.125C132.012 97.875 132.387 98.25 133.137 98.25H138.387C139.137 98.25 139.512 98.625 139.512 99.375C139.512 100.125 139.137 100.5 138.387 100.5H124.137C123.387 100.5 123.012 100.125 123.012 99.375C123.012 98.625 123.387 98.25 124.137 98.25H128.637C129.387 98.25 129.762 97.875 129.762 97.125V53.25C129.762 52.75 129.662 52.55 129.462 52.65C129.362 52.65 129.262 52.725 129.162 52.875L108.162 99.375C107.762 100.125 107.212 100.5 106.512 100.5C105.812 100.5 105.262 100.125 104.862 99.375Z"/>
</mask>
<path fill-rule="evenodd" clip-rule="evenodd" d="M104.862 99.375L87 59.8234V54.0805L105.762 95.625C106.262 96.625 106.762 96.625 107.262 95.625L128.262 49.125C128.612 48.375 129.237 48 130.137 48H138.387C139.137 48 139.512 48.375 139.512 49.125C139.512 49.875 139.137 50.25 138.387 50.25H133.137C132.387 50.25 132.012 50.625 132.012 51.375V97.125C132.012 97.875 132.387 98.25 133.137 98.25H138.387C139.137 98.25 139.512 98.625 139.512 99.375C139.512 100.125 139.137 100.5 138.387 100.5H124.137C123.387 100.5 123.012 100.125 123.012 99.375C123.012 98.625 123.387 98.25 124.137 98.25H128.637C129.387 98.25 129.762 97.875 129.762 97.125V53.25C129.762 52.75 129.662 52.55 129.462 52.65C129.362 52.65 129.262 52.725 129.162 52.875L108.162 99.375C107.762 100.125 107.212 100.5 106.512 100.5C105.812 100.5 105.262 100.125 104.862 99.375Z" fill="#3C64B1"/>
<path d="M87 59.8234H86V60.0387L86.0886 60.235L87 59.8234ZM104.862 99.375L103.951 99.7866L103.964 99.8166L103.98 99.8456L104.862 99.375ZM87 54.0805L87.9114 53.669L86 54.0805H87ZM105.762 95.625L104.851 96.0366L104.859 96.0546L104.868 96.0722L105.762 95.625ZM107.262 95.625L108.156 96.0722L108.165 96.0546L108.173 96.0366L107.262 95.625ZM128.262 49.125L127.356 48.7021L127.351 48.7134L128.262 49.125ZM129.462 52.65V53.65H129.698L129.909 53.5444L129.462 52.65ZM129.162 52.875L128.33 52.3203L128.284 52.3886L128.251 52.4634L129.162 52.875ZM108.162 99.375L109.044 99.8456L109.06 99.8166L109.073 99.7866L108.162 99.375ZM86.0886 60.235L103.951 99.7866L105.773 98.9634L87.9114 59.4118L86.0886 60.235ZM86 54.0805V59.8234H88V54.0805H86ZM106.673 95.2134L87.9114 53.669L86.0886 54.4921L104.851 96.0366L106.673 95.2134ZM106.368 95.1778C106.319 95.2741 106.277 95.3462 106.242 95.3984C106.207 95.4515 106.185 95.4751 106.18 95.4804C106.164 95.4964 106.278 95.375 106.512 95.375C106.746 95.375 106.86 95.4964 106.844 95.4804C106.839 95.4751 106.817 95.4515 106.782 95.3984C106.747 95.3462 106.705 95.2741 106.656 95.1778L104.868 96.0722C105.016 96.3693 105.198 96.6627 105.43 96.8946C105.664 97.1286 106.028 97.375 106.512 97.375C106.996 97.375 107.36 97.1286 107.594 96.8946C107.826 96.6627 108.008 96.3693 108.156 96.0722L106.368 95.1778ZM127.351 48.7134L106.351 95.2134L108.173 96.0366L129.173 49.5366L127.351 48.7134ZM130.137 47C129.548 47 128.979 47.1234 128.479 47.4238C127.973 47.7273 127.603 48.1717 127.356 48.7021L129.168 49.5479C129.271 49.3283 129.389 49.2102 129.508 49.1387C129.632 49.0641 129.826 49 130.137 49V47ZM138.387 47H130.137V49H138.387V47ZM140.512 49.125C140.512 48.5959 140.379 48.0153 139.938 47.5741C139.497 47.133 138.916 47 138.387 47V49C138.494 49 138.547 49.0137 138.563 49.019C138.574 49.0226 138.552 49.0168 138.524 48.9884C138.495 48.9599 138.489 48.9381 138.493 48.949C138.498 48.9648 138.512 49.0178 138.512 49.125H140.512ZM138.387 51.25C138.916 51.25 139.497 51.117 139.938 50.6759C140.379 50.2347 140.512 49.6541 140.512 49.125H138.512C138.512 49.2322 138.498 49.2852 138.493 49.301C138.489 49.3119 138.495 49.2901 138.524 49.2616C138.552 49.2332 138.574 49.2274 138.563 49.231C138.547 49.2363 138.494 49.25 138.387 49.25V51.25ZM133.137 51.25H138.387V49.25H133.137V51.25ZM133.012 51.375C133.012 51.2679 133.026 51.2148 133.031 51.199C133.035 51.1881 133.029 51.2099 133 51.2384C132.972 51.2668 132.95 51.2726 132.961 51.269C132.977 51.2637 133.03 51.25 133.137 51.25V49.25C132.608 49.25 132.027 49.383 131.586 49.8241C131.145 50.2653 131.012 50.8459 131.012 51.375H133.012ZM133.012 97.125V51.375H131.012V97.125H133.012ZM133.137 97.25C133.03 97.25 132.977 97.2363 132.961 97.231C132.95 97.2274 132.972 97.2332 133 97.2616C133.029 97.2901 133.035 97.3119 133.031 97.301C133.026 97.2852 133.012 97.2322 133.012 97.125H131.012C131.012 97.6541 131.145 98.2347 131.586 98.6759C132.027 99.117 132.608 99.25 133.137 99.25V97.25ZM138.387 97.25H133.137V99.25H138.387V97.25ZM140.512 99.375C140.512 98.8459 140.379 98.2653 139.938 97.8241C139.497 97.383 138.916 97.25 138.387 97.25V99.25C138.494 99.25 138.547 99.2637 138.563 99.269C138.574 99.2726 138.552 99.2668 138.524 99.2384C138.495 99.2099 138.489 99.1881 138.493 99.199C138.498 99.2148 138.512 99.2679 138.512 99.375H140.512ZM138.387 101.5C138.916 101.5 139.497 101.367 139.938 100.926C140.379 100.485 140.512 99.9041 140.512 99.375H138.512C138.512 99.4822 138.498 99.5352 138.493 99.551C138.489 99.5619 138.495 99.5401 138.524 99.5116C138.552 99.4832 138.574 99.4774 138.563 99.481C138.547 99.4863 138.494 99.5 138.387 99.5V101.5ZM124.137 101.5H138.387V99.5H124.137V101.5ZM122.012 99.375C122.012 99.9041 122.145 100.485 122.586 100.926C123.027 101.367 123.608 101.5 124.137 101.5V99.5C124.03 99.5 123.977 99.4863 123.961 99.481C123.95 99.4774 123.972 99.4832 124 99.5116C124.029 99.5401 124.035 99.5619 124.031 99.551C124.026 99.5352 124.012 99.4822 124.012 99.375H122.012ZM124.137 97.25C123.608 97.25 123.027 97.383 122.586 97.8241C122.145 98.2653 122.012 98.8459 122.012 99.375H124.012C124.012 99.2679 124.026 99.2148 124.031 99.199C124.035 99.1881 124.029 99.2099 124 99.2384C123.972 99.2668 123.95 99.2726 123.961 99.269C123.977 99.2637 124.03 99.25 124.137 99.25V97.25ZM128.637 97.25H124.137V99.25H128.637V97.25ZM128.762 97.125C128.762 97.2322 128.748 97.2852 128.743 97.301C128.739 97.3119 128.745 97.2901 128.774 97.2616C128.802 97.2332 128.824 97.2274 128.813 97.231C128.797 97.2363 128.744 97.25 128.637 97.25V99.25C129.166 99.25 129.747 99.117 130.188 98.6759C130.629 98.2347 130.762 97.6541 130.762 97.125H128.762ZM128.762 53.25V97.125H130.762V53.25H128.762ZM129.909 53.5444C129.821 53.5884 129.58 53.6809 129.277 53.5799C128.974 53.479 128.837 53.2601 128.793 53.1722C128.75 53.0869 128.748 53.0373 128.753 53.0727C128.757 53.0986 128.762 53.1546 128.762 53.25H130.762C130.762 52.9912 130.745 52.6057 130.581 52.2778C130.488 52.0899 130.287 51.8085 129.909 51.6826C129.532 51.5566 129.203 51.6616 129.015 51.7556L129.909 53.5444ZM129.994 53.4297C130.007 53.411 129.983 53.4529 129.912 53.5063C129.833 53.5656 129.678 53.65 129.462 53.65V51.65C128.831 51.65 128.47 52.1099 128.33 52.3203L129.994 53.4297ZM109.073 99.7866L130.073 53.2866L128.251 52.4634L107.251 98.9634L109.073 99.7866ZM106.512 101.5C107.667 101.5 108.515 100.838 109.044 99.8456L107.28 98.9044C107.009 99.4119 106.757 99.5 106.512 99.5V101.5ZM103.98 99.8456C104.509 100.838 105.357 101.5 106.512 101.5V99.5C106.267 99.5 106.015 99.4119 105.744 98.9044L103.98 99.8456Z" fill="#252525" mask="url(#path-4-outside-1)"/>
<line x1="34.8446" y1="10.4647" x2="79.8446" y2="81.4647" stroke="#252525" stroke-width="2"/>
<line x1="9.45735" y1="45.1107" x2="79.4573" y2="81.1107" stroke="#252525" stroke-width="2"/>
<line x1="8.70017" y1="45.046" x2="78.7002" y2="23.046" stroke="#252525" stroke-width="2"/>
<line x1="21.2638" y1="85.3232" x2="78.2638" y2="23.3232" stroke="#252525" stroke-width="2"/>
<line x1="57.9062" y1="9.42289" x2="22.9062" y2="84.4229" stroke="#252525" stroke-width="2"/>
<line x1="34.9013" y1="11.4333" x2="9.90125" y2="63.4333" stroke="#252525" stroke-width="2"/>
<line x1="50.3059" y1="94.2802" x2="78.3059" y2="67.2802" stroke="#252525" stroke-width="2"/>
<line x1="18.9068" y1="23.5785" x2="51.9068" y2="94.5785" stroke="#252525" stroke-width="2"/>
<line x1="18.585" y1="23.189" x2="79.585" y2="67.189" stroke="#252525" stroke-width="2"/>
<line x1="57.9976" y1="9.0696" x2="51.9976" y2="95.0696" stroke="#252525" stroke-width="2"/>
<line x1="9.07125" y1="62.0025" x2="79.0713" y2="67.0025" stroke="#252525" stroke-width="2"/>
<line x1="9.60604" y1="62.2046" x2="51.606" y2="94.2046" stroke="#252525" stroke-width="2"/>
<line x1="34.9793" y1="10.7976" x2="52.2594" y2="94.4" stroke="#252525" stroke-width="2"/>
<path fill-rule="evenodd" clip-rule="evenodd" d="M78.708 90.8559C69.3788 98.225 59.4249 102 48.8807 102C34.7019 102 23.0834 97.2057 14.2068 87.5884C5.36906 78.0133 1 65.981 1 51.6351C1 37.2135 5.26575 25.1405 13.9098 15.5624L13.9108 15.5613C22.6725 5.86784 33.9083 1 47.4678 1C58.8836 1 69.3137 4.74868 78.708 12.1454V6.2526C78.708 5.2881 78.9616 4.22017 79.8126 3.40661C80.6636 2.59306 81.7807 2.35067 82.7896 2.35067C83.7986 2.35067 84.9157 2.59306 85.7667 3.40661C86.6177 4.22017 86.8713 5.2881 86.8713 6.2526V31.9153C86.8713 32.8798 86.6177 33.9477 85.7667 34.7613C84.9157 35.5748 83.7986 35.8172 82.7896 35.8172C81.7807 35.8172 80.6636 35.5748 79.8126 34.7613C78.9616 33.9477 78.708 32.8798 78.708 31.9153V23.1715C76.381 20.698 73.69 18.4028 70.6282 16.2881C63.1982 11.266 55.4898 8.80387 47.4678 8.80387C36.4591 8.80387 27.3923 12.794 20.1318 20.8488C12.8554 28.9212 9.16326 39.1355 9.16326 51.6351C9.16326 64.0307 12.894 74.1956 20.2579 82.2696C27.6977 90.2348 37.0034 94.1961 48.3155 94.1961C59.305 94.1961 69.4243 89.5126 78.708 79.8163V54.8767C78.708 54.8195 78.7056 54.7716 78.7022 54.7322C78.6609 54.7288 78.6109 54.7266 78.551 54.7266H70.0738C69.0649 54.7266 67.9477 54.4842 67.0967 53.6707C66.2457 52.8571 65.9921 51.7892 65.9921 50.8247C65.9921 49.8602 66.2457 48.7922 67.0967 47.9787C67.9478 47.1651 69.0649 46.9227 70.0738 46.9227H96.9184C97.9273 46.9227 99.0444 47.1651 99.8954 47.9787C100.746 48.7922 101 49.8602 101 50.8247C101 51.7892 100.746 52.8571 99.8954 53.6706C99.0444 54.4842 97.9273 54.7266 96.9184 54.7266H87.0283C86.9684 54.7266 86.9183 54.7289 86.8771 54.7322C86.8736 54.7716 86.8713 54.8195 86.8713 54.8767V96.7474C86.8713 97.7119 86.6177 98.7798 85.7667 99.5934C84.9157 100.407 83.7986 100.649 82.7896 100.649C81.7807 100.649 80.6636 100.407 79.8126 99.5934C78.9616 98.7798 78.708 97.7119 78.708 96.7474V90.8559ZM18.7865 83.5108C11.0628 75.0467 7.20093 64.4214 7.20093 51.6351C7.20093 38.7587 11.0157 28.0884 18.6452 19.6242C26.2747 11.16 35.8823 6.92794 47.4678 6.92794C55.9451 6.92794 64.0455 9.53923 71.7692 14.7618C75.1601 17.103 78.1272 19.6692 80.6703 22.4606V31.9153C80.6703 33.266 81.3768 33.9413 82.7896 33.9413C84.2025 33.9413 84.909 33.266 84.909 31.9153V6.2526C84.909 4.90193 84.2025 4.2266 82.7896 4.2266C81.3768 4.2266 80.6703 4.90193 80.6703 6.2526V13.0059C80.6703 15.167 79.9168 15.6172 78.4097 14.3566C69.0848 6.70282 58.7708 2.87593 47.4678 2.87593C34.4694 2.87593 23.7787 7.51322 15.3956 16.7878C7.10675 25.9724 2.96232 37.5881 2.96232 51.6351C2.96232 65.592 7.20093 77.1627 15.6782 86.3473C24.1554 95.5318 35.2229 100.124 48.8807 100.124C59.2418 100.124 69.0848 96.2972 78.4097 88.6434C79.9168 87.3828 80.6703 87.833 80.6703 89.9941V96.7474C80.6703 98.0981 81.3768 98.7734 82.7896 98.7734C84.2025 98.7734 84.909 98.0981 84.909 96.7474V54.8767C84.909 53.526 85.6154 52.8507 87.0283 52.8507H96.9184C98.3312 52.8507 99.0377 52.1753 99.0377 50.8247C99.0377 49.474 98.3312 48.7987 96.9184 48.7987H70.0738C68.6609 48.7987 67.9545 49.474 67.9545 50.8247C67.9545 52.1753 68.6609 52.8507 70.0738 52.8507H78.551C79.9639 52.8507 80.6703 53.526 80.6703 54.8767V80.5394C70.9686 90.8945 60.1837 96.0721 48.3155 96.0721C36.4474 96.0721 26.6044 91.885 18.7865 83.5108Z" fill="#3C64B1" stroke="#252525"/>
</svg>
