<svg width="46" height="50" viewBox="0 0 46 50" fill="none" xmlns="http://www.w3.org/2000/svg">
<g filter="url(#filter0_bd)">
<path d="M14.8182 32.112V33.112C15.3705 33.112 15.8182 32.6642 15.8182 32.112H14.8182ZM18.8188 9.88942L18.819 8.88942L18.8188 9.88942ZM24.7922 9.8904L24.792 10.8904H24.7923L24.7922 9.8904ZM31.1818 9.88975L31.1819 10.8898C31.7342 10.8897 32.1818 10.442 32.1818 9.88975H31.1818ZM27.1812 1.00025L27.181 0.000251174L27.1812 1.00025ZM21.2078 1.00123L21.2077 2.00123H21.208L21.2078 1.00123ZM9.0004 1L9.0005 0L9.0004 1ZM5 5H6H5ZM5 28.112H4H5ZM15.8182 32.112L15.8182 18.7796H13.8182L13.8182 32.112H15.8182ZM15.8182 18.7796L15.8182 13.8894H13.8182L13.8182 18.7796H15.8182ZM15.8182 13.8894C15.8182 12.2324 17.1616 10.8892 18.8187 10.8894L18.819 8.88942C16.0573 8.88897 13.8182 11.1277 13.8182 13.8894H15.8182ZM18.8187 10.8894L24.792 10.8904L24.7924 8.8904L18.819 8.88942L18.8187 10.8894ZM24.7923 10.8904L31.1819 10.8898L31.1817 8.88975L24.7921 8.8904L24.7923 10.8904ZM32.1818 9.88975V5.00025H30.1818V9.88975H32.1818ZM32.1818 5.00025C32.1818 2.23851 29.9428 -0.000199556 27.181 0.000251174L27.1813 2.00025C28.8384 1.99998 30.1818 3.3432 30.1818 5.00025H32.1818ZM27.181 0.000251174L21.2076 0.00122595L21.208 2.00123L27.1813 2.00025L27.181 0.000251174ZM21.2079 0.00122595L9.0005 0L9.0003 2L21.2077 2.00123L21.2079 0.00122595ZM9.0005 0C6.23888 -0.000277281 4 2.23838 4 5H6C6 3.34303 7.34333 1.99983 9.0003 2L9.0005 0ZM4 5L4 28.112H6L6 5H4ZM4 28.112C4 30.8734 6.23858 33.112 9 33.112V31.112C7.34315 31.112 6 29.7688 6 28.112H4ZM9 33.112H14.8182V31.112H9V33.112Z" fill="#3C64B1"/>
<path d="M24.7922 9.89036L24.7923 10.8904H24.792L24.7922 9.89036ZM15.8182 18.7796L15.8182 37.0011H13.8182L13.8182 18.7796H15.8182ZM18.8182 40.0011H37V42.0011H18.8182V40.0011ZM40 37.0011L40 13.8891H42L42 37.0011H40ZM36.9997 10.8891L24.7923 10.8904L24.7921 8.89036L36.9995 8.88913L36.9997 10.8891ZM24.792 10.8904L18.8187 10.8894L18.819 8.88938L24.7924 8.89036L24.792 10.8904ZM15.8182 13.8894V18.7796H13.8182V13.8894H15.8182ZM18.8187 10.8894C17.1616 10.8891 15.8182 12.2323 15.8182 13.8894H13.8182C13.8182 11.1276 16.0573 8.88893 18.819 8.88938L18.8187 10.8894ZM40 13.8891C40 12.2322 38.6567 10.889 36.9997 10.8891L36.9995 8.88913C39.7611 8.88885 42 11.1275 42 13.8891H40ZM37 40.0011C38.6569 40.0011 40 38.6579 40 37.0011H42C42 39.7625 39.7614 42.0011 37 42.0011V40.0011ZM15.8182 37.0011C15.8182 38.6579 17.1613 40.0011 18.8182 40.0011V42.0011C16.0568 42.0011 13.8182 39.7625 13.8182 37.0011H15.8182Z" fill="#3C64B1"/>
</g>
<defs>
<filter id="filter0_bd" x="0" y="-4" width="46.0002" height="54.0011" filterUnits="userSpaceOnUse" color-interpolation-filters="sRGB">
<feFlood flood-opacity="0" result="BackgroundImageFix"/>
<feGaussianBlur in="BackgroundImage" stdDeviation="2"/>
<feComposite in2="SourceAlpha" operator="in" result="effect1_backgroundBlur"/>
<feColorMatrix in="SourceAlpha" type="matrix" values="0 0 0 0 0 0 0 0 0 0 0 0 0 0 0 0 0 0 127 0"/>
<feOffset dy="4"/>
<feGaussianBlur stdDeviation="2"/>
<feColorMatrix type="matrix" values="0 0 0 0 0 0 0 0 0 0 0 0 0 0 0 0 0 0 0.25 0"/>
<feBlend mode="normal" in2="effect1_backgroundBlur" result="effect2_dropShadow"/>
<feBlend mode="normal" in="SourceGraphic" in2="effect2_dropShadow" result="shape"/>
</filter>
</defs>
</svg>
