<svg width="75" height="75" viewBox="0 0 75 75" fill="none" xmlns="http://www.w3.org/2000/svg">
<g filter="url(#filter0_d)">
<path d="M21.5833 5.30951L22.0833 6.17554L21.5833 5.30951ZM53.75 5.30952L54.25 4.44349L53.75 5.30952ZM21.5833 61.0238L22.0833 60.1578L21.5833 61.0238ZM47.7214 63.7223L48.034 64.6722C48.31 64.5813 48.5328 64.375 48.6445 64.1067C48.7562 63.8385 48.7457 63.5349 48.6158 63.2751L47.7214 63.7223ZM42.2394 52.7583L41.345 53.2056L42.2394 52.7583ZM69.4971 37.8095V38.8095C69.9937 38.8095 70.415 38.4451 70.4867 37.9537L69.4971 37.8095ZM22.0833 6.17554C31.7263 0.608152 43.607 0.608154 53.25 6.17554L54.25 4.44349C43.9882 -1.48116 31.3451 -1.48116 21.0833 4.44349L22.0833 6.17554ZM6.5 33.1667C6.5 22.0319 12.4403 11.7429 22.0833 6.17554L21.0833 4.44349C10.8215 10.3681 4.5 21.3174 4.5 33.1667H6.5ZM22.0833 60.1578C12.4403 54.5904 6.5 44.3014 6.5 33.1667H4.5C4.5 45.016 10.8215 55.9652 21.0833 61.8898L22.0833 60.1578ZM47.4088 62.7724C39.0747 65.5151 29.8526 64.6434 22.0833 60.1578L21.0833 61.8898C29.3515 66.6635 39.1653 67.5908 48.034 64.6722L47.4088 62.7724ZM48.6158 63.2751L43.1338 52.3111L41.345 53.2056L46.8269 64.1695L48.6158 63.2751ZM43.1338 52.3111C42.4861 51.0157 42.1489 49.5872 42.1489 48.1389H40.1489C40.1489 49.8977 40.5584 51.6324 41.345 53.2056L43.1338 52.3111ZM42.1489 48.1389C42.1489 42.9864 46.3258 38.8095 51.4783 38.8095V36.8095C45.2212 36.8095 40.1489 41.8818 40.1489 48.1389H42.1489ZM51.4783 38.8095H69.4971V36.8095H51.4783V38.8095ZM68.8333 33.1667C68.8333 34.6853 68.7228 36.1881 68.5076 37.6653L70.4867 37.9537C70.7158 36.3816 70.8333 34.7824 70.8333 33.1667H68.8333ZM53.25 6.17554C62.893 11.7429 68.8333 22.0319 68.8333 33.1667H70.8333C70.8333 21.3174 64.5118 10.3681 54.25 4.44349L53.25 6.17554Z" fill="#3C64B1"/>
<path d="M18.7483 39.8407C19.6813 39.302 20.8308 39.302 21.7639 39.8407V39.8407C22.6969 40.3794 23.2717 41.3749 23.2717 42.4523V42.4523C23.2717 43.5297 22.6969 44.5252 21.7639 45.0639V45.0639C20.8308 45.6026 19.6813 45.6026 18.7483 45.0639V45.0639C17.8152 44.5252 17.2404 43.5297 17.2404 42.4523V42.4523C17.2404 41.3749 17.8152 40.3794 18.7483 39.8407V39.8407Z" stroke="#3C64B1" stroke-width="2" stroke-linecap="round" stroke-linejoin="round"/>
<path d="M19.9089 20.1086C20.8419 19.5699 21.9915 19.5699 22.9245 20.1086V20.1086C23.8576 20.6473 24.4323 21.6428 24.4323 22.7202V22.7202C24.4323 23.7976 23.8576 24.7931 22.9245 25.3318V25.3318C21.9915 25.8705 20.8419 25.8705 19.9089 25.3318V25.3318C18.9759 24.7931 18.4011 23.7976 18.4011 22.7202V22.7202C18.4011 21.6428 18.9759 20.6473 19.9089 20.1086V20.1086Z" stroke="#3C64B1" stroke-width="2" stroke-linecap="round" stroke-linejoin="round"/>
<path d="M36.4922 11.1562C37.4252 10.6176 38.5747 10.6176 39.5078 11.1562V11.1562C40.4408 11.6949 41.0156 12.6905 41.0156 13.7678V13.7678C41.0156 14.8452 40.4408 15.8408 39.5078 16.3795V16.3795C38.5747 16.9181 37.4252 16.9181 36.4922 16.3795V16.3795C35.5591 15.8408 34.9843 14.8452 34.9843 13.7678V13.7678C34.9843 12.6905 35.5591 11.6949 36.4922 11.1562V11.1562Z" stroke="#3C64B1" stroke-width="2" stroke-linecap="round" stroke-linejoin="round"/>
<path d="M52.7422 20.4419C53.6752 19.9033 54.8247 19.9033 55.7578 20.4419V20.4419C56.6908 20.9806 57.2656 21.9762 57.2656 23.0536V23.0536C57.2656 24.1309 56.6908 25.1265 55.7578 25.6652V25.6652C54.8247 26.2038 53.6752 26.2038 52.7422 25.6652V25.6652C51.8091 25.1265 51.2343 24.1309 51.2343 23.0536V23.0536C51.2343 21.9762 51.8091 20.9806 52.7422 20.4419V20.4419Z" stroke="#3C64B1" stroke-width="2" stroke-linecap="round" stroke-linejoin="round"/>
</g>
<defs>
<filter id="filter0_d" x="0.5" y="0" width="74.3333" height="74.3333" filterUnits="userSpaceOnUse" color-interpolation-filters="sRGB">
<feFlood flood-opacity="0" result="BackgroundImageFix"/>
<feColorMatrix in="SourceAlpha" type="matrix" values="0 0 0 0 0 0 0 0 0 0 0 0 0 0 0 0 0 0 127 0"/>
<feOffset dy="4"/>
<feGaussianBlur stdDeviation="2"/>
<feColorMatrix type="matrix" values="0 0 0 0 0 0 0 0 0 0 0 0 0 0 0 0 0 0 0.25 0"/>
<feBlend mode="normal" in2="BackgroundImageFix" result="effect1_dropShadow"/>
<feBlend mode="normal" in="SourceGraphic" in2="effect1_dropShadow" result="shape"/>
</filter>
</defs>
</svg>
